HIERARCHY
ROOT Hips
{
	OFFSET 0.000000 0.000000 0.000000
	CHANNELS 6 Xposition Yposition Zposition Yrotation Xrotation Zrotation
	JOINT Chest
	{
		OFFSET 0.000000 -0.009282 11.569106
		CHANNELS 6 Xposition Yposition Zposition Yrotation Xrotation Zrotation
		JOINT Chest2
		{
			OFFSET -0.000000 0.016863 9.269641
			CHANNELS 6 Xposition Yposition Zposition Yrotation Xrotation Zrotation
			JOINT Chest3
			{
				OFFSET -0.000000 0.000000 8.374491
				CHANNELS 6 Xposition Yposition Zposition Yrotation Xrotation Zrotation
				JOINT Chest4
				{
					OFFSET -0.000000 0.000000 8.374493
					CHANNELS 6 Xposition Yposition Zposition Yrotation Xrotation Zrotation
					JOINT Neck
					{
						OFFSET -0.000000 0.000001 12.152554
						CHANNELS 6 Xposition Yposition Zposition Yrotation Xrotation Zrotation
						JOINT Head
						{
							OFFSET -0.000000 0.040100 7.802319
							CHANNELS 6 Xposition Yposition Zposition Yrotation Xrotation Zrotation
							End Site
							{
								OFFSET -0.000000 0.020946 14.853096
							}
						}
					}
					JOINT RightCollar
					{
						OFFSET 2.894404 0.000001 6.791374
						CHANNELS 6 Xposition Yposition Zposition Yrotation Xrotation Zrotation
						JOINT RightShoulder
						{
							OFFSET 13.574684 0.000001 0.000000
							CHANNELS 6 Xposition Yposition Zposition Yrotation Xrotation Zrotation
							JOINT RightElbow
							{
								OFFSET 23.923903 0.000002 0.000000
								CHANNELS 6 Xposition Yposition Zposition Yrotation Xrotation Zrotation
								JOINT RightWrist
								{
									OFFSET 19.846718 0.012767 0.000000
									CHANNELS 6 Xposition Yposition Zposition Yrotation Xrotation Zrotation
									End Site
									{
										OFFSET 14.973145 0.000001 0.000000
									}
								}
							}
						}
					}
					JOINT LeftCollar
					{
						OFFSET -2.894404 0.000000 6.791374
						CHANNELS 6 Xposition Yposition Zposition Yrotation Xrotation Zrotation
						JOINT LeftShoulder
						{
							OFFSET -13.574684 -0.000001 0.000000
							CHANNELS 6 Xposition Yposition Zposition Yrotation Xrotation Zrotation
							JOINT LeftElbow
							{
								OFFSET -23.923903 -0.000002 0.000000
								CHANNELS 6 Xposition Yposition Zposition Yrotation Xrotation Zrotation
								JOINT LeftWrist
								{
									OFFSET -19.846718 0.012763 0.000000
									CHANNELS 6 Xposition Yposition Zposition Yrotation Xrotation Zrotation
									End Site
									{
										OFFSET -14.973145 -0.000001 0.000000
									}
								}
							}
						}
					}
				}
			}
		}
	}
	JOINT RightHip
	{
		OFFSET 9.469263 0.004643 0.045487
		CHANNELS 6 Xposition Yposition Zposition Yrotation Xrotation Zrotation
		JOINT RightKnee
		{
			OFFSET 0.000000 0.002666 -40.478676
			CHANNELS 6 Xposition Yposition Zposition Yrotation Xrotation Zrotation
			JOINT RightAnkle
			{
				OFFSET 0.000000 0.049110 -35.224068
				CHANNELS 6 Xposition Yposition Zposition Yrotation Xrotation Zrotation
				JOINT RightToe
				{
					OFFSET -0.000001 12.539530 -6.151390
					CHANNELS 6 Xposition Yposition Zposition Yrotation Xrotation Zrotation
					End Site
					{
						OFFSET -0.000001 5.044996 -1.291870
					}
				}
			}
		}
	}
	JOINT LeftHip
	{
		OFFSET -9.469263 0.004641 0.045487
		CHANNELS 6 Xposition Yposition Zposition Yrotation Xrotation Zrotation
		JOINT LeftKnee
		{
			OFFSET 0.000000 0.002666 -40.478676
			CHANNELS 6 Xposition Yposition Zposition Yrotation Xrotation Zrotation
			JOINT LeftAnkle
			{
				OFFSET 0.000000 0.049110 -35.224068
				CHANNELS 6 Xposition Yposition Zposition Yrotation Xrotation Zrotation
				JOINT LeftToe
				{
					OFFSET -0.000001 12.539530 -6.151390
					CHANNELS 6 Xposition Yposition Zposition Yrotation Xrotation Zrotation
					End Site
					{
						OFFSET -0.000001 5.044996 -1.291870
					}
				}
			}
		}
	}
}
MOTION
Frames: 5
Frame Time: 0.016667
6.053732 3.325073 83.012466 -9.989211 -2.384049 -102.568425 0.000000 -0.009281 11.569102 -0.496992 -3.542512 1.765483 -0.000000 0.016865 9.269641 -0.224972 -1.580670 0.785113 0.000000 0.000000 8.374504 -0.224973 -1.580670 0.785113 0.000000 0.000001 8.374488 -0.166688 -1.185794 0.588215 0.000000 0.000000 12.152554 5.847128 -18.965152 -10.634400 0.000002 0.040098 7.802312 7.309532 1.058320 -17.601049 2.894404 0.000000 6.791369 8.045192 -0.030579 -12.305665 13.574682 0.000002 -0.000008 63.262202 9.633309 26.965307 23.923897 0.000012 -0.000007 13.907363 -59.861895 97.425545 19.846714 0.012778 -0.000001 -12.764541 16.933530 42.293112 -2.894403 -0.000000 6.791375 -6.696868 -0.631095 -5.435671 -13.574681 -0.000001 0.000009 -53.542126 -8.381881 -37.012242 -23.923903 -0.000005 -0.000006 -26.421255 -34.608927 -71.115342 -19.846716 0.012762 0.000003 16.793499 11.022310 -54.826878 9.469263 0.004644 0.045483 1.705831 -14.289035 -11.714005 0.000105 0.002659 -40.478516 -3.304384 3.303313 -2.452500 0.000047 0.049106 -35.223995 4.074478 1.615632 -0.933692 0.000004 12.539528 -6.151394 -0.043234 -0.032092 -0.081972 -9.469261 0.004642 0.045478 1.131661 -13.799628 -22.831292 -0.000877 0.002510 -40.478485 -1.352406 4.912538 19.063137 -0.000947 0.048935 -35.224045 0.698476 0.478669 20.750694 -0.000008 12.539535 -6.151388 -0.001156 -0.014824 0.122339 
6.048035 3.314074 83.010315 -10.009996 -2.362944 -102.554566 0.000000 -0.009281 11.569117 -0.519063 -3.532710 1.763939 -0.000001 0.016863 9.269640 -0.227289 -1.576650 0.787356 -0.000001 -0.000000 8.374486 -0.227289 -1.576651 0.787355 0.000001 -0.000000 8.374504 -0.168425 -1.182783 0.589892 0.000001 0.000002 12.152561 5.835117 -18.936421 -10.631148 -0.000001 0.040101 7.802318 7.285899 1.110388 -17.599371 2.894404 0.000001 6.791388 8.012281 0.013747 -12.329823 13.574686 0.000001 -0.000007 63.224657 9.610735 26.955406 23.923897 0.000013 0.000000 14.026000 -59.862640 97.320613 19.846720 0.012777 0.000005 -12.771826 16.951133 42.294471 -2.894404 -0.000000 6.791373 -6.668161 -0.601051 -5.469623 -13.574684 -0.000001 -0.000003 -53.566049 -8.400858 -36.998073 -23.923895 -0.000006 0.000011 -26.450620 -34.585643 -71.070058 -19.846716 0.012754 -0.000002 16.792517 11.050203 -54.835808 9.469262 0.004644 0.045486 1.689678 -14.300510 -11.741481 0.000105 0.002659 -40.478512 -3.295816 3.292559 -2.441120 0.000050 0.049108 -35.223991 4.052794 1.634242 -0.959650 0.000002 12.539526 -6.151394 -0.033989 -0.036395 -0.059928 -9.469265 0.004642 0.045489 1.112381 -13.804736 -22.854103 -0.000875 0.002510 -40.478470 -1.337152 4.884057 19.043003 -0.000946 0.048937 -35.224052 0.713652 0.475052 20.725608 -0.000007 12.539530 -6.151391 -0.029132 -0.012156 0.074852 
6.043521 3.288491 83.008469 -10.027966 -2.372511 -102.547224 0.000000 -0.009281 11.569102 -0.510667 -3.517325 1.771307 -0.000001 0.016866 9.269639 -0.230271 -1.570064 0.791268 -0.000000 -0.000000 8.374495 -0.230271 -1.570064 0.791269 0.000000 0.000000 8.374504 -0.170659 -1.177849 0.592822 0.000001 0.000003 12.152549 5.827290 -18.912196 -10.635165 0.000001 0.040102 7.802306 7.268046 1.154284 -17.609599 2.894405 0.000000 6.791378 7.980805 0.053980 -12.362722 13.574682 0.000001 0.000011 63.173663 9.573812 26.924457 23.923889 0.000012 0.000005 14.062645 -59.833953 97.291626 19.846712 0.012755 0.000004 -12.785223 16.977374 42.285896 -2.894404 -0.000000 6.791384 -6.640075 -0.583636 -5.506659 -13.574685 -0.000003 -0.000002 -53.602184 -8.419777 -36.978890 -23.923910 0.000002 -0.000004 -26.450164 -34.563541 -71.038298 -19.846720 0.012753 0.000009 16.779295 11.070851 -54.829234 9.469264 0.004644 0.045489 1.716438 -14.319177 -11.760596 0.000103 0.002659 -40.478516 -3.295348 3.285465 -2.430685 0.000048 0.049106 -35.223991 4.045991 1.655824 -0.943125 0.000003 12.539529 -6.151400 -0.043951 -0.040882 -0.076407 -9.469262 0.004644 0.045485 1.119362 -13.809422 -22.868735 -0.000876 0.002511 -40.478481 -1.325564 4.854091 19.020373 -0.000948 0.048938 -35.224045 0.701983 0.495641 20.754582 -0.000005 12.539536 -6.151395 -0.015990 -0.019785 0.111155 
6.040441 3.273088 83.007156 -10.058680 -2.357442 -102.541336 -0.000001 -0.009284 11.569089 -0.529193 -3.512309 1.778987 -0.000000 0.016864 9.269633 -0.233196 -1.565737 0.794675 0.000000 -0.000000 8.374491 -0.233196 -1.565738 0.794677 -0.000000 -0.000000 8.374490 -0.172850 -1.174609 0.595371 -0.000000 0.000002 12.152560 5.820818 -18.885442 -10.642528 0.000001 0.040102 7.802324 7.251360 1.202843 -17.625571 2.894404 0.000001 6.791381 7.944094 0.090160 -12.394553 13.574683 0.000002 0.000001 63.140106 9.537929 26.892396 23.923891 0.000009 0.000002 14.075448 -59.810150 97.286066 19.846716 0.012759 0.000003 -12.796378 16.977209 42.259429 -2.894404 0.000000 6.791375 -6.615907 -0.562361 -5.541547 -13.574687 -0.000003 -0.000018 -53.637004 -8.431458 -36.960746 -23.923912 -0.000009 -0.000002 -26.440023 -34.546803 -71.018504 -19.846716 0.012758 0.000003 16.762370 11.091832 -54.827807 9.469263 0.004642 0.045476 1.702174 -14.345083 -11.787377 0.000104 0.002659 -40.478516 -3.283320 3.277325 -2.408157 0.000049 0.049105 -35.223988 4.025863 1.672254 -0.962325 0.000003 12.539529 -6.151396 -0.037701 -0.041036 -0.058603 -9.469263 0.004641 0.045469 1.098839 -13.822882 -22.880961 -0.000873 0.002512 -40.478481 -1.312648 4.822112 18.995495 -0.000954 0.048933 -35.224045 0.718833 0.499032 20.870119 -0.000003 12.539535 -6.151399 -0.037144 -0.018276 0.075731 
6.033274 3.263056 83.005501 -10.082332 -2.345152 -102.525729 -0.000000 -0.009281 11.569108 -0.542126 -3.495788 1.767374 -0.000001 0.016865 9.269625 -0.235188 -1.560682 0.795431 -0.000000 -0.000000 8.374488 -0.235187 -1.560681 0.795432 -0.000001 0.000000 8.374497 -0.174348 -1.170819 0.595937 -0.000000 0.000000 12.152567 5.810733 -18.866828 -10.648594 -0.000001 0.040103 7.802320 7.229268 1.236070 -17.640241 2.894405 0.000000 6.791378 7.907549 0.107688 -12.407064 13.574685 0.000001 -0.000009 63.116999 9.525877 26.868226 23.923897 0.000002 -0.000006 14.126490 -59.802363 97.242073 19.846716 0.012765 0.000000 -12.782445 16.982798 42.239601 -2.894403 0.000000 6.791382 -6.592336 -0.559402 -5.566230 -13.574681 0.000000 0.000005 -53.665548 -8.434781 -36.947300 -23.923893 0.000001 -0.000006 -26.436628 -34.530448 -70.999516 -19.846714 0.012752 -0.000009 16.765635 11.122488 -54.836983 9.469262 0.004645 0.045488 1.691658 -14.364738 -11.836761 0.000101 0.002659 -40.478516 -3.264716 3.272714 -2.383983 0.000050 0.049106 -35.223995 4.011909 1.692878 -0.960633 0.000003 12.539528 -6.151394 -0.039309 -0.048347 -0.052580 -9.469264 0.004643 0.045485 1.084237 -13.826030 -22.907708 -0.000873 0.002511 -40.478493 -1.300763 4.784180 18.977804 -0.000945 0.048937 -35.224041 0.723791 0.501956 20.722939 -0.000004 12.539531 -6.151392 -0.048943 -0.013708 0.056408 
